<svg width="128" height="109" viewBox="0 0 128 109" fill="none" xmlns="http://www.w3.org/2000/svg">
<path fill-rule="evenodd" clip-rule="evenodd" d="M17.716 34.5352L0 28.639V29.0601V108.8H37.1851C49.2418 108.695 59.7914 106.457 68.834 102.088C77.938 97.7182 84.9198 91.4534 89.7794 83.2934C94.7005 75.1334 97.1611 65.631 97.1611 54.7861V49.9778H79.6296V54.4702C79.6296 67.8947 75.8158 78.2395 68.1881 85.5045C60.6219 92.7695 50.0107 96.4021 36.3547 96.4021H17.716V35.6583V34.5352Z" fill="#FFF500"/>
<path fill-rule="evenodd" clip-rule="evenodd" d="M24.2773 28.0774L41.9933 34.6756V12.4769H62.662C75.8259 12.5822 85.9757 16.2674 93.1113 23.5324C100.308 30.7448 103.907 40.879 103.907 53.935V56.8568H121.438V53.6191C121.377 43.0374 118.886 33.6666 113.964 25.5066C109.105 17.3466 102.185 11.0555 93.2036 6.63329C84.2226 2.2111 73.8882 0 62.2006 0H24.2773V28.0774Z" fill="#FFF500"/>
<path fill-rule="evenodd" clip-rule="evenodd" d="M24.2775 34.5352L6.56152 28.639V29.0601V108.8H43.7466C55.8033 108.695 66.3529 106.457 75.3955 102.088C84.4995 97.7182 91.4813 91.4534 96.3409 83.2934C101.262 75.1334 103.723 65.631 103.723 54.7861V49.9778H86.1911V54.4702C86.1911 67.8947 82.3773 78.2395 74.7496 85.5045C67.1834 92.7695 56.5722 96.4021 42.9162 96.4021H24.2775V35.6583V34.5352Z" fill="#440960"/>
<path fill-rule="evenodd" clip-rule="evenodd" d="M30.8389 28.0774L48.5548 34.6756V12.4769H69.2235C82.3874 12.5822 92.5372 16.2674 99.6728 23.5324C106.87 30.7448 110.469 40.879 110.469 53.935V56.8568H128V53.6191C127.938 43.0374 125.447 33.6666 120.526 25.5066C115.666 17.3466 108.746 11.0555 99.7651 6.63329C90.7841 2.2111 80.4498 0 68.7621 0H30.8389V28.0774Z" fill="#440960"/>
</svg>
