<?xml version="1.0" standalone="no"?>
<!DOCTYPE svg PUBLIC "-//W3C//DTD SVG 20010904//EN"
 "http://www.w3.org/TR/2001/REC-SVG-20010904/DTD/svg10.dtd">
<svg version="1.0" xmlns="http://www.w3.org/2000/svg"
 width="1024.000000pt" height="1024.000000pt" viewBox="0 0 1024.000000 1024.000000"
 preserveAspectRatio="xMidYMid meet">
<metadata>
Created by potrace 1.11, written by Peter Selinger 2001-2013
</metadata>
<g transform="translate(0.000000,1024.000000) scale(0.100000,-0.100000)"
fill="#000000" stroke="none">
<path d="M2470 8357 l0 -1124 273 -101 c375 -139 1098 -408 1120 -417 16 -7
17 39 17 879 l0 887 1018 -4 c1086 -4 1070 -4 1402 -57 1206 -196 2056 -930
2384 -2057 101 -350 155 -784 156 -1255 l0 -178 702 0 701 0 -6 283 c-13 568
-75 961 -226 1417 -105 314 -235 591 -419 886 -637 1025 -1758 1697 -3162
1898 -425 61 -381 60 -2247 63 l-1713 4 0 -1124z"/>
<path d="M530 3980 l0 -3201 1693 4 c1816 4 1758 2 2169 57 987 130 1863 491
2511 1034 673 563 1132 1366 1306 2281 61 317 91 684 91 1113 l0 212 -700 0
-700 0 0 -182 c0 -797 -100 -1343 -337 -1847 -427 -911 -1302 -1498 -2443
-1640 -301 -38 -408 -41 -1301 -41 l-879 0 0 2474 0 2473 -698 232 c-383 127
-700 231 -704 231 -5 0 -8 -1440 -8 -3200z"/>
</g>
</svg>
